<?xml version="1.0" encoding="UTF-8"?>
<svg width="1440" height="600" viewBox="0 0 1440 600" fill="none" xmlns="http://www.w3.org/2000/svg">
  <g opacity="0.5">
    <!-- Grid Lines -->
    <path d="M0 50H1440" stroke="white" stroke-width="0.5" stroke-dasharray="10 10"/>
    <path d="M0 150H1440" stroke="white" stroke-width="0.5" stroke-dasharray="10 10"/>
    <path d="M0 250H1440" stroke="white" stroke-width="0.5" stroke-dasharray="10 10"/>
    <path d="M0 350H1440" stroke="white" stroke-width="0.5" stroke-dasharray="10 10"/>
    <path d="M0 450H1440" stroke="white" stroke-width="0.5" stroke-dasharray="10 10"/>
    <path d="M0 550H1440" stroke="white" stroke-width="0.5" stroke-dasharray="10 10"/>
    
    <path d="M50 0V600" stroke="white" stroke-width="0.5" stroke-dasharray="10 10"/>
    <path d="M250 0V600" stroke="white" stroke-width="0.5" stroke-dasharray="10 10"/>
    <path d="M450 0V600" stroke="white" stroke-width="0.5" stroke-dasharray="10 10"/>
    <path d="M650 0V600" stroke="white" stroke-width="0.5" stroke-dasharray="10 10"/>
    <path d="M850 0V600" stroke="white" stroke-width="0.5" stroke-dasharray="10 10"/>
    <path d="M1050 0V600" stroke="white" stroke-width="0.5" stroke-dasharray="10 10"/>
    <path d="M1250 0V600" stroke="white" stroke-width="0.5" stroke-dasharray="10 10"/>
    
    <!-- Abstract Shapes -->
    <circle cx="150" cy="100" r="50" stroke="white" stroke-width="1" fill="none"/>
    <circle cx="1300" cy="450" r="70" stroke="white" stroke-width="1" fill="none"/>
    <circle cx="400" cy="300" r="100" stroke="white" stroke-width="1" fill="none" stroke-dasharray="5 5"/>
    <circle cx="900" cy="200" r="80" stroke="white" stroke-width="1" fill="none" stroke-dasharray="5 5"/>
    
    <!-- Shield Icon -->
    <path d="M720 150C720 150 780 180 840 150V250C840 280 780 340 720 370C660 340 600 280 600 250V150C660 180 720 150 720 150Z" stroke="white" stroke-width="2" fill="none"/>
    
    <!-- Code Brackets -->
    <path d="M500 400L450 450L500 500" stroke="white" stroke-width="2"/>
    <path d="M940 400L990 450L940 500" stroke="white" stroke-width="2"/>
    
    <!-- Dots Pattern -->
    <circle cx="200" cy="500" r="3" fill="white"/>
    <circle cx="220" cy="500" r="3" fill="white"/>
    <circle cx="240" cy="500" r="3" fill="white"/>
    <circle cx="200" cy="520" r="3" fill="white"/>
    <circle cx="220" cy="520" r="3" fill="white"/>
    <circle cx="240" cy="520" r="3" fill="white"/>
    <circle cx="200" cy="540" r="3" fill="white"/>
    <circle cx="220" cy="540" r="3" fill="white"/>
    <circle cx="240" cy="540" r="3" fill="white"/>
    
    <circle cx="1200" cy="100" r="3" fill="white"/>
    <circle cx="1220" cy="100" r="3" fill="white"/>
    <circle cx="1240" cy="100" r="3" fill="white"/>
    <circle cx="1200" cy="120" r="3" fill="white"/>
    <circle cx="1220" cy="120" r="3" fill="white"/>
    <circle cx="1240" cy="120" r="3" fill="white"/>
    <circle cx="1200" cy="140" r="3" fill="white"/>
    <circle cx="1220" cy="140" r="3" fill="white"/>
    <circle cx="1240" cy="140" r="3" fill="white"/>
  </g>
</svg>
