<?xml version="1.0" encoding="UTF-8"?>
<svg width="600" height="400" viewBox="0 0 600 400" fill="none" xmlns="http://www.w3.org/2000/svg">
  <!-- Background Elements -->
  <circle cx="300" cy="200" r="150" fill="#E4E7EB" opacity="0.5"/>
  <circle cx="150" cy="100" r="50" fill="#0052CC" opacity="0.1"/>
  <circle cx="450" cy="300" r="70" fill="#0052CC" opacity="0.1"/>
  
  <!-- Server/Computer -->
  <rect x="200" y="150" width="200" height="150" rx="10" fill="#FFFFFF" stroke="#0052CC" stroke-width="3"/>
  <rect x="220" y="170" width="160" height="110" rx="5" fill="#F4F5F7"/>
  
  <!-- Shield -->
  <path d="M300 100C300 100 340 120 380 100V180C380 200 340 240 300 260C260 240 220 200 220 180V100C260 120 300 100 300 100Z" fill="#0052CC" opacity="0.8"/>
  <path d="M300 120C300 120 330 135 360 120V180C360 195 330 225 300 240C270 225 240 195 240 180V120C270 135 300 120 300 120Z" fill="#FFFFFF"/>
  
  <!-- Lock Icon -->
  <rect x="285" y="170" width="30" height="40" rx="5" fill="#0052CC"/>
  <circle cx="300" cy="180" r="10" fill="#0052CC"/>
  <rect x="295" y="175" width="10" height="15" rx="2" fill="#FFFFFF"/>
  <circle cx="300" cy="190" r="5" fill="#FFFFFF"/>
  
  <!-- Code Elements -->
  <rect x="230" y="180" width="40" height="5" rx="2" fill="#0052CC" opacity="0.7"/>
  <rect x="230" y="190" width="60" height="5" rx="2" fill="#0052CC" opacity="0.5"/>
  <rect x="230" y="200" width="50" height="5" rx="2" fill="#0052CC" opacity="0.7"/>
  <rect x="230" y="210" width="70" height="5" rx="2" fill="#0052CC" opacity="0.5"/>
  <rect x="230" y="220" width="45" height="5" rx="2" fill="#0052CC" opacity="0.7"/>
  
  <!-- Connection Lines -->
  <line x1="150" y1="100" x2="220" y2="150" stroke="#0052CC" stroke-width="2" stroke-dasharray="5 5"/>
  <line x1="450" y1="300" x2="380" y2="250" stroke="#0052CC" stroke-width="2" stroke-dasharray="5 5"/>
  
  <!-- Small Security Icons -->
  <circle cx="150" cy="100" r="15" fill="#FFFFFF"/>
  <path d="M150 92V108M142 100H158" stroke="#0052CC" stroke-width="2"/>
  
  <circle cx="450" cy="300" r="15" fill="#FFFFFF"/>
  <path d="M450 292L450 308M442 300H458" stroke="#0052CC" stroke-width="2" transform="rotate(45 450 300)"/>
</svg>
