<?xml version="1.0" encoding="UTF-8"?>
<svg width="600" height="400" viewBox="0 0 600 400" fill="none" xmlns="http://www.w3.org/2000/svg">
  <!-- Background Elements -->
  <circle cx="300" cy="200" r="150" fill="#E4E7EB" opacity="0.3"/>
  
  <!-- Target/Mission Icon -->
  <circle cx="300" cy="200" r="120" stroke="#0052CC" stroke-width="2" stroke-dasharray="5 5"/>
  <circle cx="300" cy="200" r="90" stroke="#0052CC" stroke-width="2" stroke-dasharray="5 5"/>
  <circle cx="300" cy="200" r="60" stroke="#0052CC" stroke-width="2" stroke-dasharray="5 5"/>
  <circle cx="300" cy="200" r="30" fill="#0052CC" opacity="0.2" stroke="#0052CC" stroke-width="2"/>
  
  <!-- Arrow hitting target -->
  <line x1="150" y1="50" x2="290" y2="190" stroke="#0052CC" stroke-width="3"/>
  <polygon points="300,200 285,195 290,185" fill="#0052CC"/>
  
  <!-- Security Shield -->
  <path d="M300 100C300 100 340 120 380 100V160C380 180 340 220 300 240C260 220 220 180 220 160V100C260 120 300 100 300 100Z" fill="#0052CC" opacity="0.2" stroke="#0052CC" stroke-width="2"/>
  <path d="M300 120C300 120 330 135 360 120V160C360 175 330 205 300 220C270 205 240 175 240 160V120C270 135 300 120 300 120Z" fill="#FFFFFF" stroke="#0052CC" stroke-width="2"/>
  <text x="300" y="175" font-family="Arial, sans-serif" font-size="24" font-weight="bold" fill="#0052CC" text-anchor="middle">AI</text>
  
  <!-- Puzzle Pieces (Representing Building Blocks) -->
  <path d="M150 250C150 240 145 240 145 230C145 220 155 220 155 230C155 240 160 240 160 250H150Z" fill="#0052CC" opacity="0.7"/>
  <path d="M160 250C160 240 165 240 165 230C165 220 175 220 175 230C175 240 180 240 180 250H160Z" fill="#0052CC" opacity="0.5"/>
  <path d="M180 250C180 240 185 240 185 230C185 220 195 220 195 230C195 240 200 240 200 250H180Z" fill="#0052CC" opacity="0.7"/>
  
  <path d="M400 250C400 240 395 240 395 230C395 220 405 220 405 230C405 240 410 240 410 250H400Z" fill="#0052CC" opacity="0.7"/>
  <path d="M410 250C410 240 415 240 415 230C415 220 425 220 425 230C425 240 430 240 430 250H410Z" fill="#0052CC" opacity="0.5"/>
  <path d="M430 250C430 240 435 240 435 230C435 220 445 220 445 230C445 240 450 240 450 250H430Z" fill="#0052CC" opacity="0.7"/>
  
  <!-- Text Elements -->
  <text x="300" y="320" font-family="Arial, sans-serif" font-size="16" font-weight="bold" fill="#0052CC" text-anchor="middle">SECURITY • TRUST • RESILIENCE</text>
  
  <!-- Connection Lines -->
  <line x1="200" y1="250" x2="260" y2="250" stroke="#0052CC" stroke-width="2" stroke-dasharray="5 5"/>
  <line x1="340" y1="250" x2="400" y2="250" stroke="#0052CC" stroke-width="2" stroke-dasharray="5 5"/>
</svg>
