<?xml version="1.0" encoding="UTF-8" standalone="no"?>
<svg width="800" height="400" xmlns="http://www.w3.org/2000/svg">
    <defs>
        <linearGradient id="grad" x1="0%" y1="0%" x2="0%" y2="100%">
            <stop offset="0%" style="stop-color:#0a0f18;stop-opacity:1" />
            <stop offset="100%" style="stop-color:#111827;stop-opacity:1" />
        </linearGradient>
        <filter id="glow" x="-50%" y="-50%" width="200%" height="200%">
            <feGaussianBlur stdDeviation="5" result="blur" />
            <feComposite in="SourceGraphic" in2="blur" operator="over" />
        </filter>
        <linearGradient id="blueGrad" x1="0%" y1="0%" x2="100%" y2="100%">
            <stop offset="0%" style="stop-color:#3b82f6;stop-opacity:1" />
            <stop offset="100%" style="stop-color:#06b6d4;stop-opacity:1" />
        </linearGradient>
        <filter id="neonGlow" x="-50%" y="-50%" width="200%" height="200%">
            <feGaussianBlur stdDeviation="3" result="blur" />
            <feComposite in="SourceGraphic" in2="blur" operator="over" />
            <feComponentTransfer>
                <feFuncR type="linear" slope="1.5" intercept="0" />
                <feFuncG type="linear" slope="1.5" intercept="0" />
                <feFuncB type="linear" slope="1.5" intercept="0" />
            </feComponentTransfer>
        </filter>
    </defs>

    <!-- Background -->
    <rect width="800" height="400" fill="url(#grad)" />

    <!-- Subtle grid pattern -->
    <g stroke="rgba(255, 255, 255, 0.03)" stroke-width="1">
        <line x1="0" y1="40" x2="800" y2="40" />
        <line x1="0" y1="80" x2="800" y2="80" />
        <line x1="0" y1="120" x2="800" y2="120" />
        <line x1="0" y1="160" x2="800" y2="160" />
        <line x1="0" y1="200" x2="800" y2="200" />
        <line x1="0" y1="240" x2="800" y2="240" />
        <line x1="0" y1="280" x2="800" y2="280" />
        <line x1="0" y1="320" x2="800" y2="320" />
        <line x1="0" y1="360" x2="800" y2="360" />
        <line x1="40" y1="0" x2="40" y2="400" />
        <line x1="80" y1="0" x2="80" y2="400" />
        <line x1="120" y1="0" x2="120" y2="400" />
        <line x1="160" y1="0" x2="160" y2="400" />
        <line x1="200" y1="0" x2="200" y2="400" />
        <line x1="240" y1="0" x2="240" y2="400" />
        <line x1="280" y1="0" x2="280" y2="400" />
        <line x1="320" y1="0" x2="320" y2="400" />
        <line x1="360" y1="0" x2="360" y2="400" />
        <line x1="400" y1="0" x2="400" y2="400" />
        <line x1="440" y1="0" x2="440" y2="400" />
        <line x1="480" y1="0" x2="480" y2="400" />
        <line x1="520" y1="0" x2="520" y2="400" />
        <line x1="560" y1="0" x2="560" y2="400" />
        <line x1="600" y1="0" x2="600" y2="400" />
        <line x1="640" y1="0" x2="640" y2="400" />
        <line x1="680" y1="0" x2="680" y2="400" />
        <line x1="720" y1="0" x2="720" y2="400" />
        <line x1="760" y1="0" x2="760" y2="400" />
    </g>

    <!-- Main circular element -->
    <g transform="translate(400, 200)">
        <!-- Outer circle -->
        <circle cx="0" cy="0" r="100" stroke="#ffffff" stroke-width="3" fill="none" />

        <!-- Inner circle with gradient -->
        <circle cx="0" cy="0" r="80" fill="url(#blueGrad)" opacity="0.7" />

        <!-- Abstract network icon -->
        <g transform="scale(0.8)">
            <!-- Central node -->
            <circle cx="0" cy="0" r="15" fill="#ffffff" opacity="0.9" />

            <!-- Outer nodes -->
            <circle cx="0" cy="-60" r="10" fill="#ffffff" opacity="0.9" />
            <circle cx="52" cy="-30" r="10" fill="#ffffff" opacity="0.9" />
            <circle cx="52" cy="30" r="10" fill="#ffffff" opacity="0.9" />
            <circle cx="0" cy="60" r="10" fill="#ffffff" opacity="0.9" />
            <circle cx="-52" cy="30" r="10" fill="#ffffff" opacity="0.9" />
            <circle cx="-52" cy="-30" r="10" fill="#ffffff" opacity="0.9" />

            <!-- Connection lines -->
            <line x1="0" y1="0" x2="0" y2="-60" stroke="#ffffff" stroke-width="4" opacity="0.9" />
            <line x1="0" y1="0" x2="52" y2="-30" stroke="#ffffff" stroke-width="4" opacity="0.9" />
            <line x1="0" y1="0" x2="52" y2="30" stroke="#ffffff" stroke-width="4" opacity="0.9" />
            <line x1="0" y1="0" x2="0" y2="60" stroke="#ffffff" stroke-width="4" opacity="0.9" />
            <line x1="0" y1="0" x2="-52" y2="30" stroke="#ffffff" stroke-width="4" opacity="0.9" />
            <line x1="0" y1="0" x2="-52" y2="-30" stroke="#ffffff" stroke-width="4" opacity="0.9" />
        </g>
    </g>

    <!-- Glowing connection points -->
    <g>
        <circle cx="200" cy="120" r="8" fill="#06b6d4" filter="url(#neonGlow)" />
        <circle cx="600" cy="120" r="8" fill="#06b6d4" filter="url(#neonGlow)" />
        <circle cx="200" cy="280" r="8" fill="#06b6d4" filter="url(#neonGlow)" />
        <circle cx="600" cy="280" r="8" fill="#06b6d4" filter="url(#neonGlow)" />

        <!-- Connection lines -->
        <line x1="200" y1="120" x2="320" y2="200" stroke="#06b6d4" stroke-width="2" opacity="0.7" />
        <line x1="600" y1="120" x2="480" y2="200" stroke="#06b6d4" stroke-width="2" opacity="0.7" />
        <line x1="200" y1="280" x2="320" y2="200" stroke="#06b6d4" stroke-width="2" opacity="0.7" />
        <line x1="600" y1="280" x2="480" y2="200" stroke="#06b6d4" stroke-width="2" opacity="0.7" />
    </g>

    <!-- Background network nodes (subtle) -->
    <g opacity="0.2">
        <circle cx="100" cy="50" r="2" fill="#3b82f6" />
        <circle cx="150" cy="80" r="2" fill="#3b82f6" />
        <circle cx="80" cy="120" r="2" fill="#3b82f6" />
        <line x1="100" y1="50" x2="150" y2="80" stroke="#3b82f6" stroke-width="1" />
        <line x1="150" y1="80" x2="80" y2="120" stroke="#3b82f6" stroke-width="1" />

        <circle cx="700" cy="80" r="2" fill="#3b82f6" />
        <circle cx="650" cy="120" r="2" fill="#3b82f6" />
        <circle cx="720" cy="150" r="2" fill="#3b82f6" />
        <line x1="700" y1="80" x2="650" y2="120" stroke="#3b82f6" stroke-width="1" />
        <line x1="650" y1="120" x2="720" y2="150" stroke="#3b82f6" stroke-width="1" />

        <circle cx="120" cy="320" r="2" fill="#3b82f6" />
        <circle cx="80" cy="350" r="2" fill="#3b82f6" />
        <circle cx="150" cy="370" r="2" fill="#3b82f6" />
        <line x1="120" y1="320" x2="80" y2="350" stroke="#3b82f6" stroke-width="1" />
        <line x1="80" y1="350" x2="150" y2="370" stroke="#3b82f6" stroke-width="1" />

        <circle cx="680" cy="320" r="2" fill="#3b82f6" />
        <circle cx="720" cy="350" r="2" fill="#3b82f6" />
        <circle cx="650" cy="370" r="2" fill="#3b82f6" />
        <line x1="680" y1="320" x2="720" y2="350" stroke="#3b82f6" stroke-width="1" />
        <line x1="720" y1="350" x2="650" y2="370" stroke="#3b82f6" stroke-width="1" />
    </g>
</svg>
