<?xml version="1.0" encoding="UTF-8" standalone="no"?>
<svg width="800" height="400" xmlns="http://www.w3.org/2000/svg">
    <defs>
        <linearGradient id="grad" x1="0%" y1="0%" x2="0%" y2="100%">
            <stop offset="0%" style="stop-color:#0e1c38;stop-opacity:1" />
            <stop offset="100%" style="stop-color:#1e2c48;stop-opacity:1" />
        </linearGradient>
    </defs>
    <rect width="800" height="400" fill="url(#grad)" />
    
    <!-- Grid of dots -->
    <circle cx="40" cy="40" r="2" fill="rgba(30, 99, 255, 0.5)" />
    <circle cx="80" cy="40" r="2" fill="rgba(30, 99, 255, 0.5)" />
    <circle cx="120" cy="40" r="2" fill="rgba(30, 99, 255, 0.5)" />
    <circle cx="160" cy="40" r="2" fill="rgba(30, 99, 255, 0.5)" />
    <circle cx="200" cy="40" r="2" fill="rgba(30, 99, 255, 0.5)" />
    <circle cx="240" cy="40" r="2" fill="rgba(30, 99, 255, 0.5)" />
    <circle cx="280" cy="40" r="2" fill="rgba(30, 99, 255, 0.5)" />
    <circle cx="320" cy="40" r="2" fill="rgba(30, 99, 255, 0.5)" />
    <circle cx="360" cy="40" r="2" fill="rgba(30, 99, 255, 0.5)" />
    <circle cx="400" cy="40" r="2" fill="rgba(30, 99, 255, 0.5)" />
    <circle cx="440" cy="40" r="2" fill="rgba(30, 99, 255, 0.5)" />
    <circle cx="480" cy="40" r="2" fill="rgba(30, 99, 255, 0.5)" />
    <circle cx="520" cy="40" r="2" fill="rgba(30, 99, 255, 0.5)" />
    <circle cx="560" cy="40" r="2" fill="rgba(30, 99, 255, 0.5)" />
    <circle cx="600" cy="40" r="2" fill="rgba(30, 99, 255, 0.5)" />
    <circle cx="640" cy="40" r="2" fill="rgba(30, 99, 255, 0.5)" />
    <circle cx="680" cy="40" r="2" fill="rgba(30, 99, 255, 0.5)" />
    <circle cx="720" cy="40" r="2" fill="rgba(30, 99, 255, 0.5)" />
    <circle cx="760" cy="40" r="2" fill="rgba(30, 99, 255, 0.5)" />
    
    <circle cx="40" cy="80" r="2" fill="rgba(30, 99, 255, 0.5)" />
    <circle cx="80" cy="80" r="2" fill="rgba(30, 99, 255, 0.5)" />
    <circle cx="120" cy="80" r="2" fill="rgba(30, 99, 255, 0.5)" />
    <circle cx="160" cy="80" r="2" fill="rgba(30, 99, 255, 0.5)" />
    <circle cx="200" cy="80" r="2" fill="rgba(30, 99, 255, 0.5)" />
    <circle cx="240" cy="80" r="2" fill="rgba(30, 99, 255, 0.5)" />
    <circle cx="280" cy="80" r="2" fill="rgba(30, 99, 255, 0.5)" />
    <circle cx="320" cy="80" r="2" fill="rgba(30, 99, 255, 0.5)" />
    <circle cx="360" cy="80" r="2" fill="rgba(30, 99, 255, 0.5)" />
    <circle cx="400" cy="80" r="2" fill="rgba(30, 99, 255, 0.5)" />
    <circle cx="440" cy="80" r="2" fill="rgba(30, 99, 255, 0.5)" />
    <circle cx="480" cy="80" r="2" fill="rgba(30, 99, 255, 0.5)" />
    <circle cx="520" cy="80" r="2" fill="rgba(30, 99, 255, 0.5)" />
    <circle cx="560" cy="80" r="2" fill="rgba(30, 99, 255, 0.5)" />
    <circle cx="600" cy="80" r="2" fill="rgba(30, 99, 255, 0.5)" />
    <circle cx="640" cy="80" r="2" fill="rgba(30, 99, 255, 0.5)" />
    <circle cx="680" cy="80" r="2" fill="rgba(30, 99, 255, 0.5)" />
    <circle cx="720" cy="80" r="2" fill="rgba(30, 99, 255, 0.5)" />
    <circle cx="760" cy="80" r="2" fill="rgba(30, 99, 255, 0.5)" />
    
    <!-- More rows of dots (abbreviated for brevity) -->
    <circle cx="40" cy="120" r="2" fill="rgba(30, 99, 255, 0.5)" />
    <circle cx="120" cy="120" r="2" fill="rgba(30, 99, 255, 0.5)" />
    <circle cx="200" cy="120" r="2" fill="rgba(30, 99, 255, 0.5)" />
    <circle cx="280" cy="120" r="2" fill="rgba(30, 99, 255, 0.5)" />
    <circle cx="360" cy="120" r="2" fill="rgba(30, 99, 255, 0.5)" />
    <circle cx="440" cy="120" r="2" fill="rgba(30, 99, 255, 0.5)" />
    <circle cx="520" cy="120" r="2" fill="rgba(30, 99, 255, 0.5)" />
    <circle cx="600" cy="120" r="2" fill="rgba(30, 99, 255, 0.5)" />
    <circle cx="680" cy="120" r="2" fill="rgba(30, 99, 255, 0.5)" />
    <circle cx="760" cy="120" r="2" fill="rgba(30, 99, 255, 0.5)" />
    
    <circle cx="40" cy="160" r="2" fill="rgba(30, 99, 255, 0.5)" />
    <circle cx="120" cy="160" r="2" fill="rgba(30, 99, 255, 0.5)" />
    <circle cx="200" cy="160" r="2" fill="rgba(30, 99, 255, 0.5)" />
    <circle cx="280" cy="160" r="2" fill="rgba(30, 99, 255, 0.5)" />
    <circle cx="360" cy="160" r="2" fill="rgba(30, 99, 255, 0.5)" />
    <circle cx="440" cy="160" r="2" fill="rgba(30, 99, 255, 0.5)" />
    <circle cx="520" cy="160" r="2" fill="rgba(30, 99, 255, 0.5)" />
    <circle cx="600" cy="160" r="2" fill="rgba(30, 99, 255, 0.5)" />
    <circle cx="680" cy="160" r="2" fill="rgba(30, 99, 255, 0.5)" />
    <circle cx="760" cy="160" r="2" fill="rgba(30, 99, 255, 0.5)" />
    
    <circle cx="40" cy="200" r="2" fill="rgba(30, 99, 255, 0.5)" />
    <circle cx="120" cy="200" r="2" fill="rgba(30, 99, 255, 0.5)" />
    <circle cx="200" cy="200" r="2" fill="rgba(30, 99, 255, 0.5)" />
    <circle cx="280" cy="200" r="2" fill="rgba(30, 99, 255, 0.5)" />
    <circle cx="360" cy="200" r="2" fill="rgba(30, 99, 255, 0.5)" />
    <circle cx="440" cy="200" r="2" fill="rgba(30, 99, 255, 0.5)" />
    <circle cx="520" cy="200" r="2" fill="rgba(30, 99, 255, 0.5)" />
    <circle cx="600" cy="200" r="2" fill="rgba(30, 99, 255, 0.5)" />
    <circle cx="680" cy="200" r="2" fill="rgba(30, 99, 255, 0.5)" />
    <circle cx="760" cy="200" r="2" fill="rgba(30, 99, 255, 0.5)" />
    
    <circle cx="40" cy="240" r="2" fill="rgba(30, 99, 255, 0.5)" />
    <circle cx="120" cy="240" r="2" fill="rgba(30, 99, 255, 0.5)" />
    <circle cx="200" cy="240" r="2" fill="rgba(30, 99, 255, 0.5)" />
    <circle cx="280" cy="240" r="2" fill="rgba(30, 99, 255, 0.5)" />
    <circle cx="360" cy="240" r="2" fill="rgba(30, 99, 255, 0.5)" />
    <circle cx="440" cy="240" r="2" fill="rgba(30, 99, 255, 0.5)" />
    <circle cx="520" cy="240" r="2" fill="rgba(30, 99, 255, 0.5)" />
    <circle cx="600" cy="240" r="2" fill="rgba(30, 99, 255, 0.5)" />
    <circle cx="680" cy="240" r="2" fill="rgba(30, 99, 255, 0.5)" />
    <circle cx="760" cy="240" r="2" fill="rgba(30, 99, 255, 0.5)" />
    
    <circle cx="40" cy="280" r="2" fill="rgba(30, 99, 255, 0.5)" />
    <circle cx="120" cy="280" r="2" fill="rgba(30, 99, 255, 0.5)" />
    <circle cx="200" cy="280" r="2" fill="rgba(30, 99, 255, 0.5)" />
    <circle cx="280" cy="280" r="2" fill="rgba(30, 99, 255, 0.5)" />
    <circle cx="360" cy="280" r="2" fill="rgba(30, 99, 255, 0.5)" />
    <circle cx="440" cy="280" r="2" fill="rgba(30, 99, 255, 0.5)" />
    <circle cx="520" cy="280" r="2" fill="rgba(30, 99, 255, 0.5)" />
    <circle cx="600" cy="280" r="2" fill="rgba(30, 99, 255, 0.5)" />
    <circle cx="680" cy="280" r="2" fill="rgba(30, 99, 255, 0.5)" />
    <circle cx="760" cy="280" r="2" fill="rgba(30, 99, 255, 0.5)" />
    
    <!-- Flowing lines -->
    <path d="M100,100 C150,50 200,150 250,100 C300,50 350,150 400,100 C450,50 500,150 550,100 C600,50 650,150 700,100" 
          fill="none" stroke="rgba(30, 99, 255, 0.3)" stroke-width="2" />
    
    <path d="M50,200 C100,150 150,250 200,200 C250,150 300,250 350,200 C400,150 450,250 500,200 C550,150 600,250 650,200 C700,150 750,250 800,200" 
          fill="none" stroke="rgba(30, 99, 255, 0.3)" stroke-width="2" />
    
    <path d="M150,300 C200,250 250,350 300,300 C350,250 400,350 450,300 C500,250 550,350 600,300 C650,250 700,350 750,300" 
          fill="none" stroke="rgba(30, 99, 255, 0.3)" stroke-width="2" />
    
    <!-- Future icon -->
    <g transform="translate(400, 200)">
        <!-- Outer circle -->
        <circle cx="0" cy="0" r="80" stroke="rgba(255, 255, 255, 0.7)" stroke-width="3" fill="none" />
        
        <!-- Inner circle with gradient -->
        <circle cx="0" cy="0" r="72" fill="rgba(30, 99, 255, 0.6)" />
        
        <!-- Central node -->
        <circle cx="0" cy="0" r="16" fill="rgba(255, 255, 255, 0.9)" />
        
        <!-- Connecting lines -->
        <line x1="0" y1="-16" x2="0" y2="-56" stroke="rgba(255, 255, 255, 0.8)" stroke-width="2" />
        <line x1="11.3" y1="-11.3" x2="39.6" y2="-39.6" stroke="rgba(255, 255, 255, 0.8)" stroke-width="2" />
        <line x1="16" y1="0" x2="56" y2="0" stroke="rgba(255, 255, 255, 0.8)" stroke-width="2" />
        <line x1="11.3" y1="11.3" x2="39.6" y2="39.6" stroke="rgba(255, 255, 255, 0.8)" stroke-width="2" />
        <line x1="0" y1="16" x2="0" y2="56" stroke="rgba(255, 255, 255, 0.8)" stroke-width="2" />
        <line x1="-11.3" y1="11.3" x2="-39.6" y2="39.6" stroke="rgba(255, 255, 255, 0.8)" stroke-width="2" />
        <line x1="-16" y1="0" x2="-56" y2="0" stroke="rgba(255, 255, 255, 0.8)" stroke-width="2" />
        <line x1="-11.3" y1="-11.3" x2="-39.6" y2="-39.6" stroke="rgba(255, 255, 255, 0.8)" stroke-width="2" />
        
        <!-- Endpoint circles -->
        <circle cx="0" cy="-56" r="4" fill="white" />
        <circle cx="39.6" cy="-39.6" r="4" fill="white" />
        <circle cx="56" cy="0" r="4" fill="white" />
        <circle cx="39.6" cy="39.6" r="4" fill="white" />
        <circle cx="0" cy="56" r="4" fill="white" />
        <circle cx="-39.6" cy="39.6" r="4" fill="white" />
        <circle cx="-56" cy="0" r="4" fill="white" />
        <circle cx="-39.6" cy="-39.6" r="4" fill="white" />
    </g>
    
    <!-- Title -->
    <text x="400" y="320" font-family="Arial" font-size="40" font-weight="bold" 
          fill="white" text-anchor="middle">The Future of AI</text>
    
    <!-- Subtitle -->
    <text x="400" y="360" font-family="Arial" font-size="20" 
          fill="#aaccff" text-anchor="middle">Trends and Predictions</text>
</svg>
