<?xml version="1.0" encoding="UTF-8" standalone="no"?>
<svg width="800" height="400" xmlns="http://www.w3.org/2000/svg">
    <defs>
        <linearGradient id="grad" x1="0%" y1="0%" x2="0%" y2="100%">
            <stop offset="0%" style="stop-color:#122a3d;stop-opacity:1" />
            <stop offset="100%" style="stop-color:#203c4f;stop-opacity:1" />
        </linearGradient>
    </defs>
    <rect width="800" height="400" fill="url(#grad)" />
    
    <!-- Neural network pattern -->
    <!-- Layer 1 -->
    <circle cx="160" cy="80" r="6" fill="rgba(30, 99, 255, 0.7)" stroke="rgba(255, 255, 255, 0.5)" stroke-width="1" />
    <circle cx="160" cy="160" r="6" fill="rgba(30, 99, 255, 0.7)" stroke="rgba(255, 255, 255, 0.5)" stroke-width="1" />
    <circle cx="160" cy="240" r="6" fill="rgba(30, 99, 255, 0.7)" stroke="rgba(255, 255, 255, 0.5)" stroke-width="1" />
    <circle cx="160" cy="320" r="6" fill="rgba(30, 99, 255, 0.7)" stroke="rgba(255, 255, 255, 0.5)" stroke-width="1" />
    
    <!-- Layer 2 -->
    <circle cx="320" cy="60" r="6" fill="rgba(30, 99, 255, 0.7)" stroke="rgba(255, 255, 255, 0.5)" stroke-width="1" />
    <circle cx="320" cy="140" r="6" fill="rgba(30, 99, 255, 0.7)" stroke="rgba(255, 255, 255, 0.5)" stroke-width="1" />
    <circle cx="320" cy="220" r="6" fill="rgba(30, 99, 255, 0.7)" stroke="rgba(255, 255, 255, 0.5)" stroke-width="1" />
    <circle cx="320" cy="300" r="6" fill="rgba(30, 99, 255, 0.7)" stroke="rgba(255, 255, 255, 0.5)" stroke-width="1" />
    <circle cx="320" cy="380" r="6" fill="rgba(30, 99, 255, 0.7)" stroke="rgba(255, 255, 255, 0.5)" stroke-width="1" />
    
    <!-- Layer 3 -->
    <circle cx="480" cy="60" r="6" fill="rgba(30, 99, 255, 0.7)" stroke="rgba(255, 255, 255, 0.5)" stroke-width="1" />
    <circle cx="480" cy="140" r="6" fill="rgba(30, 99, 255, 0.7)" stroke="rgba(255, 255, 255, 0.5)" stroke-width="1" />
    <circle cx="480" cy="220" r="6" fill="rgba(30, 99, 255, 0.7)" stroke="rgba(255, 255, 255, 0.5)" stroke-width="1" />
    <circle cx="480" cy="300" r="6" fill="rgba(30, 99, 255, 0.7)" stroke="rgba(255, 255, 255, 0.5)" stroke-width="1" />
    <circle cx="480" cy="380" r="6" fill="rgba(30, 99, 255, 0.7)" stroke="rgba(255, 255, 255, 0.5)" stroke-width="1" />
    
    <!-- Layer 4 -->
    <circle cx="640" cy="100" r="6" fill="rgba(30, 99, 255, 0.7)" stroke="rgba(255, 255, 255, 0.5)" stroke-width="1" />
    <circle cx="640" cy="200" r="6" fill="rgba(30, 99, 255, 0.7)" stroke="rgba(255, 255, 255, 0.5)" stroke-width="1" />
    <circle cx="640" cy="300" r="6" fill="rgba(30, 99, 255, 0.7)" stroke="rgba(255, 255, 255, 0.5)" stroke-width="1" />
    
    <!-- Connections from layer 1 to 2 -->
    <line x1="160" y1="80" x2="320" y2="60" stroke="rgba(30, 99, 255, 0.2)" stroke-width="1" />
    <line x1="160" y1="80" x2="320" y2="140" stroke="rgba(30, 99, 255, 0.2)" stroke-width="1" />
    <line x1="160" y1="80" x2="320" y2="220" stroke="rgba(30, 99, 255, 0.2)" stroke-width="1" />
    <line x1="160" y1="80" x2="320" y2="300" stroke="rgba(30, 99, 255, 0.2)" stroke-width="1" />
    <line x1="160" y1="80" x2="320" y2="380" stroke="rgba(30, 99, 255, 0.2)" stroke-width="1" />
    
    <line x1="160" y1="160" x2="320" y2="60" stroke="rgba(30, 99, 255, 0.2)" stroke-width="1" />
    <line x1="160" y1="160" x2="320" y2="140" stroke="rgba(30, 99, 255, 0.2)" stroke-width="1" />
    <line x1="160" y1="160" x2="320" y2="220" stroke="rgba(30, 99, 255, 0.2)" stroke-width="1" />
    <line x1="160" y1="160" x2="320" y2="300" stroke="rgba(30, 99, 255, 0.2)" stroke-width="1" />
    <line x1="160" y1="160" x2="320" y2="380" stroke="rgba(30, 99, 255, 0.2)" stroke-width="1" />
    
    <line x1="160" y1="240" x2="320" y2="60" stroke="rgba(30, 99, 255, 0.2)" stroke-width="1" />
    <line x1="160" y1="240" x2="320" y2="140" stroke="rgba(30, 99, 255, 0.2)" stroke-width="1" />
    <line x1="160" y1="240" x2="320" y2="220" stroke="rgba(30, 99, 255, 0.2)" stroke-width="1" />
    <line x1="160" y1="240" x2="320" y2="300" stroke="rgba(30, 99, 255, 0.2)" stroke-width="1" />
    <line x1="160" y1="240" x2="320" y2="380" stroke="rgba(30, 99, 255, 0.2)" stroke-width="1" />
    
    <line x1="160" y1="320" x2="320" y2="60" stroke="rgba(30, 99, 255, 0.2)" stroke-width="1" />
    <line x1="160" y1="320" x2="320" y2="140" stroke="rgba(30, 99, 255, 0.2)" stroke-width="1" />
    <line x1="160" y1="320" x2="320" y2="220" stroke="rgba(30, 99, 255, 0.2)" stroke-width="1" />
    <line x1="160" y1="320" x2="320" y2="300" stroke="rgba(30, 99, 255, 0.2)" stroke-width="1" />
    <line x1="160" y1="320" x2="320" y2="380" stroke="rgba(30, 99, 255, 0.2)" stroke-width="1" />
    
    <!-- Connections from layer 2 to 3 (just a few to avoid clutter) -->
    <line x1="320" y1="60" x2="480" y2="60" stroke="rgba(30, 99, 255, 0.2)" stroke-width="1" />
    <line x1="320" y1="60" x2="480" y2="140" stroke="rgba(30, 99, 255, 0.2)" stroke-width="1" />
    <line x1="320" y1="140" x2="480" y2="140" stroke="rgba(30, 99, 255, 0.2)" stroke-width="1" />
    <line x1="320" y1="140" x2="480" y2="220" stroke="rgba(30, 99, 255, 0.2)" stroke-width="1" />
    <line x1="320" y1="220" x2="480" y2="220" stroke="rgba(30, 99, 255, 0.2)" stroke-width="1" />
    <line x1="320" y1="220" x2="480" y2="300" stroke="rgba(30, 99, 255, 0.2)" stroke-width="1" />
    <line x1="320" y1="300" x2="480" y2="300" stroke="rgba(30, 99, 255, 0.2)" stroke-width="1" />
    <line x1="320" y1="300" x2="480" y2="380" stroke="rgba(30, 99, 255, 0.2)" stroke-width="1" />
    <line x1="320" y1="380" x2="480" y2="380" stroke="rgba(30, 99, 255, 0.2)" stroke-width="1" />
    
    <!-- Connections from layer 3 to 4 -->
    <line x1="480" y1="60" x2="640" y2="100" stroke="rgba(30, 99, 255, 0.2)" stroke-width="1" />
    <line x1="480" y1="140" x2="640" y2="100" stroke="rgba(30, 99, 255, 0.2)" stroke-width="1" />
    <line x1="480" y1="140" x2="640" y2="200" stroke="rgba(30, 99, 255, 0.2)" stroke-width="1" />
    <line x1="480" y1="220" x2="640" y2="200" stroke="rgba(30, 99, 255, 0.2)" stroke-width="1" />
    <line x1="480" y1="220" x2="640" y2="300" stroke="rgba(30, 99, 255, 0.2)" stroke-width="1" />
    <line x1="480" y1="300" x2="640" y2="300" stroke="rgba(30, 99, 255, 0.2)" stroke-width="1" />
    <line x1="480" y1="380" x2="640" y2="300" stroke="rgba(30, 99, 255, 0.2)" stroke-width="1" />
    
    <!-- Brain icon -->
    <g transform="translate(400, 200)">
        <path d="M-40,0 C-64,-24 -56,-56 -24,-48 C-8,-64 8,-64 24,-48 C56,-56 64,-24 40,0 C48,32 24,48 0,40 C-24,48 -48,32 -40,0 Z" 
              fill="rgba(30, 99, 255, 0.7)" stroke="rgba(255, 255, 255, 0.7)" stroke-width="3" />
        
        <!-- Neural connections -->
        <line x1="-20" y1="-20" x2="20" y2="20" stroke="rgba(255, 255, 255, 0.5)" stroke-width="1" />
        <line x1="20" y1="-20" x2="-20" y2="20" stroke="rgba(255, 255, 255, 0.5)" stroke-width="1" />
        <line x1="0" y1="-30" x2="0" y2="30" stroke="rgba(255, 255, 255, 0.5)" stroke-width="1" />
        <line x1="-30" y1="0" x2="30" y2="0" stroke="rgba(255, 255, 255, 0.5)" stroke-width="1" />
        
        <circle cx="-20" cy="-20" r="2" fill="white" />
        <circle cx="20" cy="-20" r="2" fill="white" />
        <circle cx="-20" cy="20" r="2" fill="white" />
        <circle cx="20" cy="20" r="2" fill="white" />
        <circle cx="0" cy="-30" r="2" fill="white" />
        <circle cx="0" cy="30" r="2" fill="white" />
        <circle cx="-30" cy="0" r="2" fill="white" />
        <circle cx="30" cy="0" r="2" fill="white" />
    </g>
    
    <!-- Title -->
    <text x="400" y="320" font-family="Arial" font-size="40" font-weight="bold" 
          fill="white" text-anchor="middle">AI Models</text>
    
    <!-- Subtitle -->
    <text x="400" y="360" font-family="Arial" font-size="20" 
          fill="#aaccff" text-anchor="middle">Advanced Secure AI Models</text>
</svg>
