<?xml version="1.0" encoding="UTF-8" standalone="no"?>
<svg width="800" height="400" xmlns="http://www.w3.org/2000/svg">
    <defs>
        <linearGradient id="grad" x1="0%" y1="0%" x2="0%" y2="100%">
            <stop offset="0%" style="stop-color:#0f2942;stop-opacity:1" />
            <stop offset="100%" style="stop-color:#1e3a54;stop-opacity:1" />
        </linearGradient>
    </defs>
    <rect width="800" height="400" fill="url(#grad)" />
    
    <!-- Tech pattern - circuit-like lines -->
    <line x1="0" y1="50" x2="800" y2="50" stroke="rgba(30, 99, 255, 0.3)" stroke-width="2" />
    <line x1="0" y1="150" x2="800" y2="150" stroke="rgba(30, 99, 255, 0.3)" stroke-width="2" />
    <line x1="0" y1="250" x2="800" y2="250" stroke="rgba(30, 99, 255, 0.3)" stroke-width="2" />
    <line x1="0" y1="350" x2="800" y2="350" stroke="rgba(30, 99, 255, 0.3)" stroke-width="2" />
    
    <line x1="50" y1="50" x2="50" y2="100" stroke="rgba(30, 99, 255, 0.3)" stroke-width="2" />
    <circle cx="50" cy="50" r="4" fill="rgba(30, 99, 255, 0.7)" />
    
    <line x1="200" y1="50" x2="200" y2="20" stroke="rgba(30, 99, 255, 0.3)" stroke-width="2" />
    <circle cx="200" cy="50" r="4" fill="rgba(30, 99, 255, 0.7)" />
    
    <line x1="350" y1="50" x2="350" y2="100" stroke="rgba(30, 99, 255, 0.3)" stroke-width="2" />
    <circle cx="350" cy="50" r="4" fill="rgba(30, 99, 255, 0.7)" />
    
    <line x1="500" y1="50" x2="500" y2="20" stroke="rgba(30, 99, 255, 0.3)" stroke-width="2" />
    <circle cx="500" cy="50" r="4" fill="rgba(30, 99, 255, 0.7)" />
    
    <line x1="650" y1="50" x2="650" y2="100" stroke="rgba(30, 99, 255, 0.3)" stroke-width="2" />
    <circle cx="650" cy="50" r="4" fill="rgba(30, 99, 255, 0.7)" />
    
    <line x1="100" y1="150" x2="100" y2="200" stroke="rgba(30, 99, 255, 0.3)" stroke-width="2" />
    <circle cx="100" cy="150" r="4" fill="rgba(30, 99, 255, 0.7)" />
    
    <line x1="250" y1="150" x2="250" y2="100" stroke="rgba(30, 99, 255, 0.3)" stroke-width="2" />
    <circle cx="250" cy="150" r="4" fill="rgba(30, 99, 255, 0.7)" />
    
    <line x1="400" y1="150" x2="400" y2="200" stroke="rgba(30, 99, 255, 0.3)" stroke-width="2" />
    <circle cx="400" cy="150" r="4" fill="rgba(30, 99, 255, 0.7)" />
    
    <line x1="550" y1="150" x2="550" y2="100" stroke="rgba(30, 99, 255, 0.3)" stroke-width="2" />
    <circle cx="550" cy="150" r="4" fill="rgba(30, 99, 255, 0.7)" />
    
    <line x1="700" y1="150" x2="700" y2="200" stroke="rgba(30, 99, 255, 0.3)" stroke-width="2" />
    <circle cx="700" cy="150" r="4" fill="rgba(30, 99, 255, 0.7)" />
    
    <!-- Diagonal lines -->
    <line x1="150" y1="100" x2="300" y2="200" stroke="rgba(30, 99, 255, 0.3)" stroke-width="2" />
    <circle cx="150" cy="100" r="4" fill="rgba(30, 99, 255, 0.7)" />
    
    <line x1="450" y1="200" x2="600" y2="300" stroke="rgba(30, 99, 255, 0.3)" stroke-width="2" />
    <circle cx="450" cy="200" r="4" fill="rgba(30, 99, 255, 0.7)" />
    
    <!-- Product icon (gear) -->
    <g transform="translate(400, 200)">
        <path d="M0,-90 L20,-85 L35,-70 L40,-50 L35,-30 L20,-15 L0,-10 L-20,-15 L-35,-30 L-40,-50 L-35,-70 L-20,-85 Z" 
              fill="rgba(30, 99, 255, 0.7)" stroke="rgba(255, 255, 255, 0.7)" stroke-width="3" />
        <circle cx="0" cy="0" r="30" fill="rgba(10, 25, 41, 0.8)" stroke="rgba(255, 255, 255, 0.7)" stroke-width="3" />
    </g>
    
    <!-- Title -->
    <text x="400" y="320" font-family="Arial" font-size="40" font-weight="bold" 
          fill="white" text-anchor="middle">Products & Solutions</text>
    
    <!-- Subtitle -->
    <text x="400" y="360" font-family="Arial" font-size="20" 
          fill="#aaccff" text-anchor="middle">Comprehensive AI Security Tools</text>
</svg>
